<?xml version="1.0" encoding="utf-8"?>
<!-- Generator: Adobe Illustrator 16.0.0, SVG Export Plug-In . SVG Version: 6.00 Build 0)  -->
<!DOCTYPE svg PUBLIC "-//W3C//DTD SVG 1.1//EN" "http://www.w3.org/Graphics/SVG/1.1/DTD/svg11.dtd">
<svg version="1.1" xmlns="http://www.w3.org/2000/svg" xmlns:xlink="http://www.w3.org/1999/xlink" x="0px" y="0px"
	 width="256.84px" height="308.382px" viewBox="24.58 145.809 256.84 308.382"
	 enable-background="new 24.58 145.809 256.84 308.382" xml:space="preserve">
<g id="Edges">
	<g id="s4">
		<path fill="none" stroke="#824CFD" stroke-width="1.5" stroke-dasharray="6,2" d="M153,153.26
			c24.193,16.305,48.387,32.609,72.58,48.914"/>
		<path fill="none" stroke="#824CFD" stroke-width="1.5" stroke-dasharray="6,2" d="M80.419,202.174
			c16.129,16.304,32.258,32.609,48.387,48.913"/>
		<path fill="none" stroke="#824CFD" stroke-width="1.5" stroke-dasharray="6,2" d="M128.807,202.174
			c32.258,16.304,64.516,32.609,96.773,48.913"/>
		<path fill="none" stroke="#824CFD" stroke-width="1.5" d="M177.193,202.174c32.258,16.304,64.516,32.609,96.774,48.913"/>
		<path fill="none" stroke="#824CFD" stroke-width="1.5" stroke-dasharray="6,2" d="M32.032,251.087
			C48.161,267.391,64.29,283.696,80.419,300"/>
		<path fill="none" stroke="#824CFD" stroke-width="1.5" d="M80.419,251.087c32.258,16.304,64.516,32.608,96.774,48.913"/>
		<path fill="none" stroke="#824CFD" stroke-width="1.5" d="M177.193,251.087c16.129,16.304,32.258,32.608,48.387,48.913"/>
		<path fill="none" stroke="#824CFD" stroke-width="1.5" d="M32.032,300c24.193,16.305,48.387,32.608,72.581,48.913"/>
		<path fill="none" stroke="#824CFD" stroke-width="1.5" d="M128.807,300c24.193,16.305,48.387,32.608,72.58,48.913"/>
		<path fill="none" stroke="#824CFD" stroke-width="1.5" d="M273.968,300c-12.237,15.777-20.302,32.081-24.194,48.913"/>
		<path fill="none" stroke="#824CFD" stroke-width="1.5" d="M56.226,348.913c16.129,16.305,32.258,32.609,48.387,48.913"/>
		<path fill="none" stroke="#824CFD" stroke-width="1.5" d="M153,348.913c0,16.305,0,32.609,0,48.913"/>
		<path fill="none" stroke="#824CFD" stroke-width="1.5" d="M201.387,397.826c-19.976,15.332-36.105,31.637-48.387,48.913"/>
	</g>
	<g id="s3">
		<path fill="none" stroke="#4CB0FD" stroke-width="1.5" stroke-dasharray="6,2" d="M153,153.26
			c8.064,16.305,16.129,32.609,24.193,48.914"/>
		<path fill="none" stroke="#4CB0FD" stroke-width="1.5" stroke-dasharray="6,2" d="M80.419,202.174c0,16.304,0,32.609,0,48.913"/>
		<path fill="none" stroke="#4CB0FD" stroke-width="1.5" d="M128.807,202.174c16.129,16.304,32.258,32.609,48.387,48.913"/>
		<path fill="none" stroke="#4CB0FD" stroke-width="1.5" d="M225.58,202.174c16.129,16.304,32.258,32.609,48.388,48.913"/>
		<path fill="none" stroke="#4CB0FD" stroke-width="1.5" d="M32.032,251.087c0,16.304,0,32.608,0,48.913"/>
		<path fill="none" stroke="#4CB0FD" stroke-width="1.5" d="M128.807,251.087c16.129,16.304,32.258,32.608,48.387,48.913"/>
		<path fill="none" stroke="#4CB0FD" stroke-width="1.5" d="M225.58,251.087c16.129,16.304,32.258,32.608,48.388,48.913"/>
		<path fill="none" stroke="#4CB0FD" stroke-width="1.5" d="M80.419,300c24.194,16.305,48.387,32.608,72.581,48.913"/>
		<path fill="none" stroke="#4CB0FD" stroke-width="1.5" d="M128.807,300c-27.635,15-51.828,31.305-72.581,48.913"/>
		<path fill="none" stroke="#4CB0FD" stroke-width="1.5" stroke-dasharray="6,2" d="M225.58,300
			c8.064,16.305,16.129,32.608,24.193,48.913"/>
		<path fill="none" stroke="#4CB0FD" stroke-width="1.5" stroke-dasharray="6,2" d="M104.613,348.913
			c16.129,16.305,32.258,32.609,48.387,48.913"/>
		<path fill="none" stroke="#4CB0FD" stroke-width="1.5" d="M201.387,348.913c0,16.305,0,32.609,0,48.913"/>
		<path fill="none" stroke="#4CB0FD" stroke-width="1.5" d="M104.613,397.826c16.129,16.305,32.258,32.609,48.387,48.913"/>
	</g>
	<g id="s2">
		<path fill="none" stroke="#4CFD4E" stroke-width="1.5" stroke-dasharray="6,2" d="M153,153.26
			c-8.064,16.305-16.129,32.609-24.193,48.914"/>
		<path fill="none" stroke="#4CFD4E" stroke-width="1.5" d="M80.419,202.174c-16.129,16.304-32.258,32.609-48.387,48.913"/>
		<path fill="none" stroke="#4CFD4E" stroke-width="1.5" d="M177.193,202.174c0,16.304,0,32.609,0,48.913"/>
		<path fill="none" stroke="#4CFD4E" stroke-width="1.5" stroke-dasharray="6,2" d="M225.58,202.174c0,16.304,0,32.609,0,48.913"/>
		<path fill="none" stroke="#4CFD4E" stroke-width="1.5" d="M80.419,251.087c16.129,16.304,32.258,32.608,48.387,48.913"/>
		<path fill="none" stroke="#4CFD4E" stroke-width="1.5" d="M128.807,251.087C112.678,267.391,96.548,283.696,80.419,300"/>
		<path fill="none" stroke="#4CFD4E" stroke-width="1.5" d="M273.968,251.087c-16.13,16.304-32.259,32.608-48.388,48.913"/>
		<path fill="none" stroke="#4CFD4E" stroke-width="1.5" stroke-dasharray="6,2" d="M32.032,300
			c8.064,16.305,16.129,32.608,24.193,48.913"/>
		<path fill="none" stroke="#4CFD4E" stroke-width="1.5" d="M177.193,300c8.064,16.305,16.129,32.608,24.193,48.913"/>
		<path fill="none" stroke="#4CFD4E" stroke-width="1.5" d="M273.968,300c-3.892,16.831-11.956,33.136-24.194,48.913"/>
		<path fill="none" stroke="#4CFD4E" stroke-width="1.5" stroke-dasharray="6,2" d="M104.613,348.913c0,16.305,0,32.609,0,48.913"/>
		<path fill="none" stroke="#4CFD4E" stroke-width="1.5" d="M153,348.913c16.129,16.305,32.258,32.609,48.387,48.913"/>
		<path fill="none" stroke="#4CFD4E" stroke-width="1.5" d="M153,397.826c0,16.305,0,32.609,0,48.913"/>
	</g>
	<g id="s1_1_">
		<path fill="none" stroke="#FD4C7C" stroke-width="1.5" stroke-dasharray="6,2" d="M153,153.26
			c-24.193,16.305-48.387,32.609-72.581,48.914"/>
		<path fill="none" stroke="#FD4C7C" stroke-width="1.5" d="M128.807,202.174c-32.258,16.304-64.517,32.609-96.774,48.913"/>
		<path fill="none" stroke="#FD4C7C" stroke-width="1.5" stroke-dasharray="6,2" d="M177.193,202.174
			c-32.258,16.304-64.516,32.609-96.774,48.913"/>
		<path fill="none" stroke="#FD4C7C" stroke-width="1.5" stroke-dasharray="6,2" d="M225.58,202.174
			c-32.258,16.304-64.516,32.609-96.773,48.913"/>
		<path fill="none" stroke="#FD4C7C" stroke-width="1.5" d="M177.193,251.087C128.807,267.391,80.419,283.696,32.032,300"/>
		<path fill="none" stroke="#FD4C7C" stroke-width="1.5" d="M225.58,251.087C177.193,267.391,128.807,283.696,80.419,300"/>
		<path fill="none" stroke="#FD4C7C" stroke-width="1.5" stroke-dasharray="6,2" d="M273.968,251.087
			c-32.259,16.304-64.517,32.608-96.774,48.913"/>
		<path fill="none" stroke="#FD4C7C" stroke-width="1.5" d="M128.807,300c-20.753,17.608-44.946,33.914-72.581,48.913"/>
		<path fill="none" stroke="#FD4C7C" stroke-width="1.5" d="M225.58,300c-40.322,16.305-80.645,32.608-120.967,48.913"/>
		<path fill="none" stroke="#FD4C7C" stroke-width="1.5" d="M273.968,300c-40.323,16.305-80.646,32.608-120.968,48.913"/>
		<path fill="none" stroke="#FD4C7C" stroke-width="1.5" d="M201.387,348.913c-32.258,16.305-64.516,32.609-96.773,48.913"/>
		<path fill="none" stroke="#FD4C7C" stroke-width="1.5" d="M249.773,348.913c-32.258,16.305-64.516,32.609-96.773,48.913"/>
		<path fill="none" stroke="#FD4C7C" stroke-width="1.5" d="M201.387,397.826c-12.281,17.277-28.41,33.581-48.387,48.913"/>
	</g>
</g>
<g id="Vertices">
	<circle fill="#FFFFFF" stroke="#555555" stroke-width="2" cx="80.42" cy="202.174" r="6.452"/>
	<circle fill="#FFFFFF" stroke="#555555" stroke-width="2" cx="128.807" cy="202.174" r="6.452"/>
	<circle fill="#FFFFFF" stroke="#555555" stroke-width="2" cx="177.193" cy="202.174" r="6.452"/>
	<circle fill="#FFFFFF" stroke="#555555" stroke-width="2" cx="225.58" cy="202.174" r="6.452"/>
	<circle fill="#FFFFFF" stroke="#555555" stroke-width="2" cx="32.032" cy="251.087" r="6.452"/>
	<circle fill="#FFFFFF" stroke="#555555" stroke-width="2" cx="80.42" cy="251.087" r="6.452"/>
	<circle fill="#FFFFFF" stroke="#555555" stroke-width="2" cx="128.807" cy="251.087" r="6.452"/>
	<circle fill="#FFFFFF" stroke="#555555" stroke-width="2" cx="177.193" cy="251.087" r="6.452"/>
	<circle fill="#FFFFFF" stroke="#555555" stroke-width="2" cx="225.58" cy="251.087" r="6.452"/>
	<circle fill="#FFFFFF" stroke="#555555" stroke-width="2" cx="273.968" cy="251.087" r="6.452"/>
	<circle fill="#FFFFFF" stroke="#555555" stroke-width="2" cx="32.032" cy="300" r="6.452"/>
	<circle fill="#FFFFFF" stroke="#555555" stroke-width="2" cx="80.42" cy="300" r="6.452"/>
	<circle fill="#FFFFFF" stroke="#555555" stroke-width="2" cx="128.807" cy="300" r="6.452"/>
	<circle fill="#FFFFFF" stroke="#555555" stroke-width="2" cx="177.193" cy="300" r="6.452"/>
	<circle fill="#FFFFFF" stroke="#555555" stroke-width="2" cx="225.58" cy="300" r="6.452"/>
	<circle fill="#FFFFFF" stroke="#555555" stroke-width="2" cx="273.968" cy="300" r="6.452"/>
	<circle fill="#FFFFFF" stroke="#555555" stroke-width="2" cx="56.226" cy="348.914" r="6.452"/>
	<circle fill="#FFFFFF" stroke="#555555" stroke-width="2" cx="104.613" cy="348.914" r="6.452"/>
	<circle fill="#FFFFFF" stroke="#555555" stroke-width="2" cx="153" cy="348.914" r="6.452"/>
	<circle fill="#FFFFFF" stroke="#555555" stroke-width="2" cx="201.387" cy="348.914" r="6.452"/>
	<circle fill="#FFFFFF" stroke="#555555" stroke-width="2" cx="249.773" cy="348.914" r="6.452"/>
	<circle fill="#FFFFFF" stroke="#555555" stroke-width="2" cx="104.613" cy="397.827" r="6.452"/>
	<circle fill="#FFFFFF" stroke="#555555" stroke-width="2" cx="153" cy="397.827" r="6.452"/>
	<circle fill="#FFFFFF" stroke="#555555" stroke-width="2" cx="201.387" cy="397.827" r="6.452"/>
	<circle fill="#FFFFFF" stroke="#555555" stroke-width="2" cx="153" cy="153.261" r="6.452"/>
	<circle fill="#FFFFFF" stroke="#555555" stroke-width="2" cx="153" cy="446.74" r="6.452"/>
</g>
</svg>
